<?xml version="1.0" encoding="utf-8"?>
<!-- Generator: Adobe Illustrator 20.1.0, SVG Export Plug-In . SVG Version: 6.00 Build 0)  -->
<svg version="1.1" id="Layer_1" xmlns="http://www.w3.org/2000/svg" xmlns:xlink="http://www.w3.org/1999/xlink" x="0px" y="0px"
	 viewBox="0 0 391.2 170.6" style="enable-background:new 0 0 391.2 170.6;" xml:space="preserve">
<style type="text/css">
	.st0{clip-path:url(#SVGID_2_);}
	.st1{clip-path:url(#SVGID_4_);}
	.st2{fill:#99B3CA;}
</style>
<title>roller</title>
<g>
	<g>
		<defs>
			<rect id="SVGID_1_" width="391.2" height="170.6"/>
		</defs>
		<clipPath id="SVGID_2_">
			<use xlink:href="#SVGID_1_"  style="overflow:visible;"/>
		</clipPath>
		<g id="Vector_Smart_Object" class="st0">
			<g>
				<defs>
					<rect id="SVGID_3_" width="391.2" height="170.6"/>
				</defs>
				<clipPath id="SVGID_4_">
					<use xlink:href="#SVGID_3_"  style="overflow:visible;"/>
				</clipPath>
				<g class="st1">
					<path class="st2" d="M366,136.5c7.8-0.2,15.1-3.9,19.8-10.2c3.9-5.2,5.5-10.9,5.4-13.3c0-1.4-0.5-2.8-1.3-3.9
						c-0.7-1.1-2-1.7-3.3-1.7c-2.6,0.1-3.6,2.8-5.1,5.5s-3.2,5.4-7.4,5.6c-2.6,0.1-5.1-0.8-7-2.5c-2.3-2.1-4.2-6-4.5-12.8
						c-0.5-11.1,3-20,6.5-26.9s7.1-11.9,7-15.3c-0.2-3.9-1.3-7.7-3.2-11.1c-1.8-3-4-4.9-6.2-4.8c-2.7,0.1-5.7,3.4-9.9,7.1
						s-9.5,8.1-17,10.3c0.3-2.6,0.4-5,0.4-7.1s0-3.8,0-5c-0.2-4-0.7-7.2-2-9.3c-1.3-2.2-3.3-3.3-6.3-3.2c-3.6,0.2-8.4,3.4-12.2,8.2
						c-3.8,4.7-6.6,10.8-6.4,16.8c0.1,3.7,1.3,7.3,3.4,10.3c2.4,3.1,5.9,5.1,9.7,5.5c-1.7,10.9-4.8,21.8-9.2,30.1
						s-10.1,14-17.1,14.3c-3.4,0.3-6.7-0.6-9.6-2.4c-3-2-5.8-5.4-8-11.2c7.5-2.7,14.3-7.1,19.8-12.8c5.8-6.1,9.9-13.9,9.5-23.2
						c-0.1-5.6-2.1-11.1-5.8-15.4c-3.6-4-9-6.5-16.1-6.2c-9.8,0.4-18.4,5.9-24.5,14.6s-9.6,20.6-9,33.7c0.1,2.6,0.4,5.2,0.8,7.7
						c0.4,2.4,1,4.7,1.8,6.9c-1,1.6-1.8,3.7-2.8,5.5c-1,1.8-2.3,3.2-4.3,3.3s-3.7-1.3-4.9-5s-1.9-9.8-2.3-19.1s1.4-30.9,3.2-50.8
						S251.9,10,251.8,7c0-2.1-0.9-4.1-2.5-5.4c-1.2-1-2.8-1.6-4.3-1.6c-2.7,0.1-6.3,1.8-9.5,4.3c-12.3,7.5-8.5,19-9.5,24.7
						c-0.4,4.2-0.8,9.1-1.2,14.2c-0.4,5.2-0.8,10.6-1.1,16.2c-1.4,22.1-2.4,45.4-2.1,52.5c0,1.2,0.1,2.3,0.2,3.5s0.3,2.3,0.4,3.4
						c-0.6,1.4-1.3,2.7-2.1,3.9c-0.8,1.1-2.1,1.8-3.4,1.9c-2.1,0.1-3.7-1.3-4.9-5s-1.9-9.8-2.3-19.1s1.4-30.9,3.2-50.8
						c0.4-5,0.9-9.9,1.3-14.5c-2.2-12,9.3-31-2.2-31c-19-3.8-26.6,22.8-22.6,40.5c-0.4,5.2-0.8,10.6-1.1,16.2
						c-1.4,22.2-2.5,45.5-2.2,52.6c0.3,8.2,2.1,15.7,5.9,21.1s9.6,8.6,18.1,8.2c3.7-0.1,7.3-1.2,10.5-3.3c2.7-1.8,5-4.1,6.7-6.9
						c1.8,2.8,4.4,5.1,7.4,6.6c3.5,1.6,7.3,2.4,11.1,2.1c4.9-0.1,9.5-2,13.1-5.3c3-2.8,5.3-6.2,6.8-10c3.4,4.4,7.7,7.9,12.8,10.2
						c5.1,2.3,10.6,3.4,16.2,3.1c13.8-0.6,23.7-9.3,30.6-21.2s10.9-27,13.1-40.2c4-0.6,8.1-1.6,11.2-2.3s5.3-1.4,5.3-1.4
						c-3.8,5-7.1,10.5-9.6,16.3c-3.4,7.6-6.1,16.6-5.7,25.1c0.1,5.9,2.8,11.4,7.2,15.1C351,134.7,357.6,136.8,366,136.5 M280.1,95.9
						c0-0.6-0.1-1.2-0.1-1.8c-0.4-5.9,0.2-11.8,1.8-17.5c1.4-4.7,3.6-7.7,6.6-7.8c2,0,3.8,1.1,4.7,2.8c1.1,1.9,1.6,4,1.7,6.2
						c0.1,4.3-1.3,8.4-4.1,11.6c-2.9,3.3-6.4,6.1-10.3,8.2C280.2,97,280.2,96.5,280.1,95.9"/>
					<path class="st2" d="M37.8,164.4c4.5-2.8,7.4-6.6,7.2-10.9c-0.1-1.4-0.3-9.5-0.4-19.8c-0.1-10.3-0.2-22.8,0.1-33
						c0-0.7,0-1.5,0-2.3s0-1.5,0-2.3c1.1,0,2.1,0,3.2,0c1,0,2,0,3,0c5.9,13.3,16.8,32.1,28.9,47.5s25.1,27.3,35.2,26.9
						c3.3-0.1,8.1-3.7,12-8.4c3.9-4.7,7-10.7,6.8-15.5c-0.2-4.3-4.9-5.9-13.8-11.2S97.7,121,80.5,101.7l-3.7-3.9l-3.7-3.9
						c15.6-3.4,27.7-10.3,35.7-19c3.9-4.1,6.9-8.9,9-14.2c1.9-5,2.8-10.3,2.6-15.7c0-17.8-15.2-25.5-31.4-33.5
						c-7-1.6-14.3-2.3-21.5-1.9C51,10.4,34.9,14.6,20.2,22C7.7,28.3-0.2,35.5,0,40.1c0.1,0.9,0.4,1.8,1.1,2.5
						c0.8,0.8,1.9,1.2,3.1,1.1c1.4-0.1,2.7-0.5,4-1c1.6-0.6,3.5-1.5,5.7-2.6c-0.1,4.3,0.1,10.1,0.4,19.2s0.4,21.4,0.2,38.5
						c-0.2,18.5-0.9,30.9-1.4,40.1s-0.9,15.3-0.6,21.2c0.2,4.4,0.6,7,1.9,8.4s3.2,1.7,6.5,1.6C26.7,169,32.6,167.4,37.8,164.4
						 M46.3,56.7l1.2-27.8c1.3-0.2,2.7-0.3,4-0.4c1.3-0.1,2.6-0.2,4-0.3c14.1-0.6,22.6,3,27.6,7.8c4.1,4,6.5,9.5,6.6,15.2
						c0.3,8.1-3.9,16.2-11.6,22.3s-19,10.3-32.7,10.9h-0.4L46.3,56.7z"/>
					<path class="st2" d="M182.9,95c-0.3-8.9-2.1-17.8-5.1-26.2c-2.9-7.4-6.8-12.5-11.1-12.3c-1.1,0.1-2.3,0.3-3.3,0.6
						c-1.2,0.4-2.4,0.9-3.8,1.5c-0.8-0.5-1.8-0.8-2.7-1c-1.4-0.3-2.8-0.4-4.2-0.3c-7.3,0.3-16.4,3.8-23.4,12
						c-7,8.2-12,20.9-11.3,39.6c0.5,8.9,3.7,17.4,9.2,24.4c5.7,7.2,14,12.4,24.6,11.9c9.6-0.4,17.7-5.2,23.3-13.9
						S183.5,110.4,182.9,95 M161.9,120.3c-1.5,4.8-3.9,8.2-7.3,8.3c-2.1,0.1-4.9-1.6-7.2-5.9s-4.3-11-4.7-21
						c-0.4-6.5,0.1-12.9,1.5-19.3c0.8-3.4,2.1-6.6,3.8-9.6c3.7,1.3,7.4,4.5,10.4,9.6s5,12,5.4,20.6
						C164,108.9,163.4,114.7,161.9,120.3"/>
				</g>
			</g>
		</g>
	</g>
</g>
</svg>
