<svg id="Layer_1" data-name="Layer 1" xmlns="http://www.w3.org/2000/svg" xmlns:xlink="http://www.w3.org/1999/xlink" viewBox="0 0 391.17 170.6"><defs><style>.cls-1{fill:none;}.cls-2{clip-path:url(#clip-path);}.cls-3{fill:#00b2cf;}.cls-4{fill:#00b2ce;}</style><clipPath id="clip-path" transform="translate(-4.49 -14.33)"><rect class="cls-1" x="4.49" y="14.33" width="391.17" height="170.6"/></clipPath></defs><title>roller</title><g id="Vector_Smart_Object" data-name="Vector Smart Object"><g class="cls-2"><g class="cls-2"><path class="cls-3" d="M370.51,150.79a25.36,25.36,0,0,0,19.77-10.2c3.93-5.17,5.47-10.85,5.37-13.29a7.15,7.15,0,0,0-1.32-3.93,3.82,3.82,0,0,0-3.26-1.68c-2.62.1-3.65,2.77-5.06,5.46s-3.2,5.39-7.36,5.56a9.59,9.59,0,0,1-7-2.5c-2.31-2.15-4.19-6-4.46-12.8-.45-11.13,3-20,6.52-26.89s7.12-11.91,7-15.35a24.59,24.59,0,0,0-3.17-11.08c-1.75-3-4-4.93-6.18-4.85-2.71.11-5.71,3.36-9.88,7.13s-9.53,8.07-17,10.27c.26-2.63.38-5,.44-7.11s0-3.78,0-5c-.16-4-.7-7.18-2-9.34s-3.26-3.31-6.34-3.19c-3.62.15-8.38,3.42-12.17,8.16S317.78,71,318,77a18.1,18.1,0,0,0,3.41,10.26,14.43,14.43,0,0,0,9.74,5.52c-1.73,10.86-4.82,21.81-9.22,30.12s-10.1,14-17.07,14.27a16,16,0,0,1-9.63-2.35c-3-2-5.82-5.45-8-11.25a53.2,53.2,0,0,0,19.84-12.84c5.8-6.11,9.88-13.93,9.5-23.16A24.2,24.2,0,0,0,310.8,72.2c-3.65-4-9-6.52-16.06-6.24-9.77.4-18.43,5.92-24.51,14.61s-9.58,20.58-9.05,33.7A54.94,54.94,0,0,0,262,122a49.56,49.56,0,0,0,1.8,6.93c-1.05,1.57-1.79,3.72-2.79,5.49s-2.26,3.18-4.34,3.26-3.68-1.3-4.85-5-1.92-9.82-2.3-19.14,1.37-30.87,3.19-50.83,3.7-38.35,3.58-41.33a7.19,7.19,0,0,0-2.47-5.43,6.55,6.55,0,0,0-4.34-1.55c-2.71.11-6.3,1.84-9.52,4.32-12.28,7.55-8.47,19-9.52,24.73-.39,4.22-.79,9.05-1.18,14.21s-.77,10.64-1.13,16.2C226.73,96,225.68,119.26,226,126.4c0,1.18.13,2.34.24,3.49s.26,2.28.43,3.38a19.77,19.77,0,0,1-2.14,3.92,4.47,4.47,0,0,1-3.45,1.91c-2.08.09-3.68-1.3-4.85-5s-1.92-9.82-2.3-19.14,1.37-30.87,3.19-50.83c.45-5,.91-9.88,1.34-14.46-2.16-12,9.27-31-2.16-31-19-3.81-26.65,22.85-22.63,40.46-.39,5.15-.78,10.64-1.13,16.2-1.43,22.22-2.48,45.46-2.19,52.61.33,8.23,2.09,15.73,5.89,21.08s9.64,8.56,18.14,8.21a20.24,20.24,0,0,0,10.46-3.26,23.34,23.34,0,0,0,6.73-6.88,19.06,19.06,0,0,0,7.36,6.6,22.52,22.52,0,0,0,11.08,2.1,20.23,20.23,0,0,0,13.08-5.28,27.3,27.3,0,0,0,6.78-10,33.81,33.81,0,0,0,12.77,10.23,35.33,35.33,0,0,0,16.21,3.09c13.84-.56,23.68-9.3,30.6-21.2s10.93-27,13.11-40.2c4-.62,8.1-1.55,11.23-2.34s5.29-1.41,5.29-1.41A78.45,78.45,0,0,0,349.48,105c-3.36,7.59-6.08,16.62-5.73,25.13A20.23,20.23,0,0,0,351,145.26c4.53,3.73,11.1,5.87,19.51,5.53M284.6,110.22c0-.57-.07-1.15-.1-1.78a55.32,55.32,0,0,1,1.76-17.54c1.42-4.66,3.65-7.69,6.64-7.82a5.14,5.14,0,0,1,4.67,2.8,13.33,13.33,0,0,1,1.68,6.19,16.83,16.83,0,0,1-4.15,11.61,37.34,37.34,0,0,1-10.27,8.19,13.21,13.21,0,0,1-.22-1.64" transform="translate(-4.49 -14.33)"/><path class="cls-4" d="M42.29,178.73c4.53-2.77,7.41-6.55,7.24-10.9-.06-1.36-.29-9.46-.44-19.76s-.2-22.81.11-33c0-.73,0-1.49,0-2.27s0-1.54,0-2.27c1.08,0,2.13,0,3.15,0s2,0,3,0C61.24,123.86,72.2,142.67,84.22,158s25.1,27.3,35.24,26.88c3.26-.13,8.05-3.68,12-8.42s7-10.66,6.8-15.54c-.18-4.34-4.86-5.92-13.83-11.24S102.22,135.34,84.94,116l-3.69-3.93-3.69-3.93c15.63-3.44,27.67-10.32,35.7-19a44.68,44.68,0,0,0,9-14.18,38.86,38.86,0,0,0,2.63-15.67c0-17.85-15.19-25.46-31.43-33.48a76.1,76.1,0,0,0-21.48-1.89,118.31,118.31,0,0,0-47.3,12.39C12.22,42.61,4.31,49.87,4.49,54.39a3.92,3.92,0,0,0,1.07,2.47A3.85,3.85,0,0,0,8.63,58a13.31,13.31,0,0,0,4-1c1.63-.64,3.54-1.53,5.67-2.61-.1,4.26.14,10.14.35,19.24s.4,21.42.19,38.55c-.24,18.5-.87,30.89-1.38,40.14s-.89,15.33-.65,21.21c.18,4.43.65,7,1.88,8.42s3.24,1.71,6.5,1.58a36.49,36.49,0,0,0,17.14-4.78M50.84,71l1.23-27.78c1.35-.15,2.66-.29,4-.41s2.62-.22,4-.27c14.11-.57,22.6,3,27.6,7.85A22.41,22.41,0,0,1,94.31,65.6c.33,8.14-3.87,16.15-11.6,22.27S63.73,98.2,50,98.76h-.36Z" transform="translate(-4.49 -14.33)"/><path class="cls-3" d="M187.41,109.3a85.5,85.5,0,0,0-5.14-26.16c-2.88-7.4-6.76-12.5-11.1-12.32a12.78,12.78,0,0,0-3.33.63c-1.16.36-2.41.87-3.84,1.47a8.14,8.14,0,0,0-2.74-1,17.47,17.47,0,0,0-4.2-.3c-7.33.3-16.38,3.84-23.42,12s-12,20.9-11.28,39.63a43.88,43.88,0,0,0,9.17,24.39c5.71,7.22,14,12.37,24.57,11.94,9.59-.39,17.73-5.25,23.31-13.86s8.62-21,8-36.35m-21,25.26c-1.48,4.84-3.88,8.2-7.32,8.34-2.08.08-4.87-1.61-7.24-5.85s-4.32-11-4.73-21a69.57,69.57,0,0,1,1.53-19.27,33,33,0,0,1,3.82-9.59c3.68,1.3,7.43,4.54,10.36,9.62s5,12,5.37,20.56a54.41,54.41,0,0,1-1.79,17.22" transform="translate(-4.49 -14.33)"/></g></g></g></svg>